<svg xmlns="http://www.w3.org/2000/svg" viewBox="0 0 64 64">
  <path
    d="M1 1.5c16.8-1 26.2 2.7 35 13.5 6.8 8.4 10.8 12 14.7 13.5-7.6-.5-13.7-5-20.7-10.5C21.3 11.1 13 10.3 1 11.5z"
    fill="#60abfb"
  />
  <path
    d="M1 26c14-1 24 .1 34 4 7 2.8 11 2.5 15 2-6 4-11 5-18 3-10-3-19-2-31 1z"
    fill="#60abfb"
  />
  <path
    d="M1 52.5c13 .5 22 3.5 31-2.5 8-5.3 14-11.5 18.7-14.5-4.7 4.5-8.7 14.5-15.7 21.5-9 7-19 5.5-34 5.5z"
    fill="#60abfb"
  />
  <circle cx="57" cy="32" r="6.7" fill="#f5f5f5"/>
</svg>
