<svg xmlns="http://www.w3.org/2000/svg" viewBox="0 0 64 64">
  <path
    d="M6 10.8c12.8-.8 21.4 1 28.3 8.3 6.2 6.6 10.2 10.7 16 12.6-7.2.8-12.6-3.5-19.6-7.6C24.2 18.2 17.1 15.7 6 16.7z"
    fill="#60abfb"
  />
  <path
    d="M6 25.2c12.7-.6 21.4.4 29.2 4.6 5.8 3.1 9.2 4.4 14.7 4.4-6 2.6-10.5 2.2-16.8.6-7.2-1.8-15.3-4.6-27.1-3.6z"
    fill="#60abfb"
  />
  <path
    d="M6 39c11.2.1 18.9 3 27.2 1.4 7.2-1.4 11.4-3 17.1-3.7-5 3.1-9.2 8-16.8 9.6-9.2 1.9-17.5-1-27.5-.8z"
    fill="#60abfb"
  />
  <circle cx="57" cy="34.2" r="5.3" fill="#f5f5f5"/>
</svg>
